<svg version="1.2" xmlns="http://www.w3.org/2000/svg" viewBox="0 0 1912 691" width="1912" height="691">
	<style>
		.s0 { fill: #635C51 } 
		.s1 { fill: #B0A990 } 
	</style>
	<g id="Background">
		<path id="Path 0" class="s0" d="m1370.33 349.5c0 3.85 0.18 5.2 0.4 3 0.21-2.2 0.21-5.35-0.01-7-0.22-1.65-0.4 0.15-0.39 4z"/>
		<path id="Path 1" fill-rule="evenodd" class="s1" d="m307 212.68c3.57 0.26 10.77 1.14 16 1.94 5.23 0.81 14 2.96 19.5 4.8 5.5 1.83 13.38 5.02 17.5 7.09 4.13 2.07 9.98 5.34 13 7.26 3.02 1.93 9.66 6.59 14.75 10.37 6.44 4.78 9.02 7.26 8.5 8.19-0.41 0.74-7.95 10.62-32.75 42.61l-3-2.54c-1.65-1.4-6.15-4.95-10-7.9-3.85-2.94-9.7-6.97-13-8.94-3.3-1.97-9.82-5.01-14.5-6.75-7.65-2.84-9.65-3.17-20.02-3.23-11.02-0.08-11.81 0.06-18.25 3.17-4.05 1.95-7.67 4.55-9.09 6.5-1.3 1.79-2.88 4.82-3.52 6.75-0.63 1.93-1.14 5.3-1.12 7.5 0.02 2.23 1.02 5.77 2.28 8 1.44 2.57 4.57 5.53 8.73 8.27 3.57 2.34 11.22 6.22 16.99 8.62 5.77 2.4 17.7 7.17 26.5 10.6 8.8 3.44 20.5 8.46 26 11.17 5.5 2.71 13.1 7.04 16.89 9.63 3.8 2.59 9.84 7.86 13.44 11.71 4.41 4.72 7.79 9.61 10.36 15 2.1 4.4 4.49 11.26 5.31 15.25 0.83 3.99 1.53 11.86 1.57 17.5 0.04 5.64-0.6 13.4-1.41 17.25-0.81 3.85-2.39 9.48-3.52 12.5-1.12 3.02-4.24 8.87-6.92 13-2.69 4.12-7.77 10.21-11.3 13.53-3.53 3.31-9.57 7.9-13.42 10.2-3.85 2.31-10.37 5.58-14.5 7.29-4.12 1.7-11.1 3.93-15.5 4.95-4.4 1.02-12.95 2.4-19 3.08-9.47 1.05-12.6 0.99-22.5-0.43-6.32-0.92-15.77-2.79-21-4.16-5.3-1.4-14.81-5.1-21.5-8.37-6.6-3.22-15.6-8.52-20-11.78-4.4-3.25-12.15-10.17-17.21-15.36-7.79-7.98-9.03-9.69-8-11.02 0.66-0.87 8.64-10.44 17.71-21.28 9.07-10.84 16.72-19.68 17-19.64 0.28 0.03 2.75 3.01 5.5 6.6 2.75 3.6 7.7 9.11 11 12.24 3.3 3.14 9.15 7.6 13 9.92 3.85 2.32 10.15 5.32 14 6.68 3.85 1.36 10.6 2.98 15 3.59 4.55 0.64 11.02 0.82 15 0.42 3.85-0.38 9.7-1.53 13-2.54 3.3-1.01 7.98-3.32 10.39-5.13 2.42-1.81 5.3-5.09 6.4-7.29 1.37-2.73 2.02-6.06 2.04-10.5 0.04-5.16-0.48-7.43-2.5-11-1.78-3.16-4.45-5.71-8.93-8.56-3.52-2.24-10.22-5.69-14.9-7.67-4.68-1.98-14.8-5.95-22.5-8.81-7.7-2.86-18.95-7.54-25-10.38-6.05-2.85-14.15-7.22-18-9.71-3.85-2.49-9.66-6.97-12.91-9.95-3.25-2.98-7.57-7.67-9.6-10.42-2.03-2.75-4.89-7.36-6.34-10.25-1.46-2.89-3.6-8.74-4.76-13-1.52-5.6-2.12-10.8-2.15-18.75-0.04-8.41 0.47-12.89 2.17-19 1.22-4.4 4.1-11.52 6.4-15.83 2.31-4.3 7.12-11 10.69-14.88 3.57-3.88 10.1-9.4 14.5-12.26 4.4-2.85 10.7-6.36 14-7.8 3.3-1.43 9.6-3.53 14-4.67 4.4-1.13 11.38-2.47 15.5-2.96 4.13-0.49 10.43-0.68 14-0.42zm1200.75-0.59c10.38-0.07 15.9 0.44 25.5 2.37 6.74 1.36 15.4 3.54 19.25 4.85 3.85 1.31 11.05 4.38 16 6.83 4.95 2.45 11.7 6.23 15 8.41 3.29 2.17 9.14 6.56 13 9.76 3.85 3.19 9.92 9.09 13.5 13.1 3.58 4.01 7.85 9.18 9.5 11.48 1.9 2.65 2.63 4.48 2 5.01-0.55 0.46-10.67 7.27-44 29.42l-3.97-4.91c-2.18-2.7-6.01-6.85-8.5-9.22-2.49-2.37-7.45-6.28-11.03-8.69-3.58-2.41-9.42-5.58-13-7.05-3.58-1.47-9.88-3.53-14-4.59-5.04-1.29-10.95-1.92-18-1.93-5.86-0.01-13.81 0.69-18 1.58-4.13 0.88-10.42 2.76-14 4.19-3.58 1.42-9.65 4.62-13.5 7.11-3.85 2.48-9.19 6.58-11.86 9.1-2.67 2.53-6.89 7.29-9.36 10.59-2.48 3.3-5.98 8.93-7.78 12.5-1.81 3.57-4.24 9.43-5.41 13-1.17 3.57-2.6 10.32-3.17 15-0.73 5.95-0.73 11.43 0.02 18.25 0.58 5.36 2.3 13.46 3.83 18 1.52 4.54 4.76 11.62 7.21 15.75 2.44 4.12 7.44 10.65 11.1 14.5 3.66 3.85 9.75 9.1 13.54 11.67 3.78 2.57 9.47 5.83 12.63 7.25 3.16 1.42 9.46 3.53 14 4.7 6.17 1.59 11.28 2.12 20.25 2.12 9.01 0 13.99-0.53 20-2.11 4.4-1.16 12.05-4.11 17-6.55 4.95-2.44 12.15-7.1 16-10.35 3.85-3.24 8.91-8.45 11.25-11.57 2.85-3.8 4.68-5.41 5.55-4.91 0.71 0.41 10.83 7.16 22.5 15 11.66 7.84 21.19 14.59 21.17 15-0.01 0.41-1.75 3-3.86 5.75-2.11 2.75-6.93 8.33-10.72 12.39-3.79 4.06-10.94 10.42-15.89 14.13-4.95 3.71-13.28 9.02-18.5 11.8-5.22 2.79-13.33 6.48-18 8.2-4.67 1.72-12.55 3.96-17.5 4.97-4.95 1-13.72 2.4-19.5 3.09-8.4 1.01-12.4 1.01-20 0.01-5.22-0.68-13.1-1.93-17.5-2.78-4.4-0.85-11.83-2.88-16.5-4.52-4.67-1.64-12.55-5-17.5-7.48-4.95-2.47-12.38-6.81-16.5-9.63-4.13-2.82-12.46-10.1-18.52-16.16-6.06-6.06-13.34-14.4-16.16-18.52-2.82-4.13-7.16-11.55-9.62-16.5-2.47-4.95-5.69-12.38-7.16-16.5-1.46-4.13-3.63-11.55-4.8-16.5-1.82-7.62-2.15-12.06-2.16-29-0.01-17.66 0.26-21.11 2.33-29.5 1.29-5.23 3.68-13.1 5.29-17.5 1.62-4.4 5.04-12.05 7.6-17 2.56-4.95 7.87-13.27 11.8-18.5 3.93-5.23 10.24-12.43 14.02-16 3.79-3.57 9.58-8.58 12.88-11.11 3.3-2.54 10.05-6.94 15-9.78 4.95-2.84 12.6-6.56 17-8.27 4.4-1.71 10.25-3.75 13-4.53 2.75-0.78 9.28-2.25 14.5-3.27 6.05-1.18 14.32-1.89 22.75-1.95zm259.25 1.61c3.58 0.16 9.42 0.54 13 0.86 3.58 0.32 11.67 1.91 18 3.55 6.89 1.78 15.91 5.08 22.5 8.24 6.05 2.9 14.37 7.54 18.5 10.31 4.12 2.76 10.39 7.69 13.93 10.93 3.53 3.25 8.48 8.09 11 10.76 2.51 2.67 7.05 8.29 10.08 12.5 3.02 4.21 7.61 11.7 10.18 16.65 2.57 4.95 6.25 13.73 8.17 19.5 1.92 5.77 4.42 16.12 5.56 23 1.13 6.87 2.06 15.87 2.06 20 0 4.12-0.93 13.12-2.06 20-1.14 6.87-3.64 17.23-5.56 23-1.92 5.77-5.6 14.55-8.17 19.5-2.57 4.95-7.26 12.6-10.41 17-3.15 4.4-9.9 12.19-15.01 17.32-5.1 5.12-13.1 11.93-17.77 15.12-4.67 3.19-12.21 7.66-16.75 9.93-4.54 2.27-12.41 5.53-17.5 7.24-5.09 1.71-13.64 3.96-19 5-6.89 1.34-14.15 1.89-24.75 1.89-10.6 0-17.86-0.55-24.75-1.89-5.36-1.04-13.91-3.29-19-5-5.09-1.71-12.96-4.96-17.5-7.22-4.54-2.27-11.17-6.05-14.75-8.42-3.58-2.36-9.74-7.15-13.69-10.63-3.96-3.49-9.74-9.27-12.86-12.84-3.11-3.57-7.8-9.65-10.42-13.5-2.62-3.85-6.79-11.05-9.27-16-2.48-4.95-5.7-12.6-7.15-17-1.45-4.4-3.35-11.15-4.23-15-0.94-4.13-1.8-13.97-2.11-24-0.4-13.2-0.14-19.23 1.16-27 0.92-5.5 3.17-14.5 5-20 1.83-5.5 5.38-14.05 7.89-19 2.51-4.95 6.28-11.54 8.37-14.64 2.1-3.11 6.8-9.3 10.45-13.76 3.66-4.46 9.96-10.71 14-13.88 4.05-3.17 8.94-6.93 10.86-8.34 1.92-1.42 6.87-4.49 11-6.83 4.12-2.34 11.1-5.74 15.5-7.55 4.4-1.82 12.95-4.53 19-6.04 6.05-1.5 15.28-3.03 20.5-3.39 5.22-0.36 12.42-0.53 16-0.37zm-17.5 55.67c-2.75 0.33-6.35 1.03-8 1.56-1.65 0.53-4.58 1.56-6.5 2.3-1.92 0.74-6.32 2.67-9.76 4.31-3.45 1.63-6.26 3.3-6.25 3.71 0 0.41-0.44 0.75-0.99 0.75-0.55 0-2.24 0.93-3.75 2.07-1.51 1.14-4.78 3.99-7.25 6.34-2.47 2.36-5.63 5.72-7 7.49-1.38 1.77-3.33 4.2-4.35 5.41-1.02 1.2-3.61 5.68-5.75 9.94-2.15 4.26-4.59 10.34-5.43 13.5-0.84 3.16-1.85 7.32-2.25 9.25-0.4 1.93-0.71 8.23-0.69 14 0.01 5.77 0.31 11.85 0.65 13.5 0.35 1.65 1.12 5.14 1.73 7.75 0.6 2.61 2.21 7.45 3.59 10.75 1.37 3.3 3.73 7.91 5.22 10.25 1.5 2.34 4.31 6.27 6.24 8.75 1.93 2.48 4.92 5.85 6.63 7.5 1.72 1.65 4.84 4.35 6.95 6 2.11 1.65 5.77 4.24 8.14 5.75 2.38 1.51 4.66 2.75 5.07 2.75 0.41-0.01 2.44 0.89 4.5 2 2.06 1.1 6.34 2.69 9.5 3.52 3.16 0.84 7.33 1.83 9.25 2.21 1.92 0.37 7.78 0.69 13 0.72 5.22 0.03 11.75-0.28 14.5-0.69 2.75-0.41 7.03-1.36 9.5-2.12 2.47-0.76 6.75-2.35 9.5-3.54 2.75-1.19 5.67-2.62 6.5-3.16 0.83-0.55 2.29-1.21 3.25-1.47 0.96-0.26 1.74-0.81 1.74-1.22-0.01-0.41 1.45-1.62 3.25-2.68 1.79-1.06 6.14-4.66 9.65-8 3.51-3.34 8.6-9.45 11.3-13.57 2.7-4.13 6.2-10.88 7.78-15 1.59-4.13 3.07-8.63 3.3-10 0.23-1.38 0.71-3.06 1.07-3.75 0.37-0.69 0.86-5.86 1.1-11.5 0.24-5.64 0.05-12.5-0.42-15.25-0.47-2.75-1.12-6.35-1.43-8-0.32-1.65-0.84-3.9-1.15-5-0.31-1.1-0.95-2.9-1.42-4-0.47-1.1-2.12-4.7-3.68-8-1.55-3.3-4.32-8.25-6.16-11-1.84-2.75-6.12-7.71-9.51-11.02-3.4-3.31-8.42-7.6-11.17-9.54-2.75-1.94-6.58-4.25-8.5-5.14-1.92-0.9-5.97-2.74-9-4.1-3.03-1.36-6.85-2.76-8.5-3.11-1.65-0.34-4.13-0.87-5.5-1.17-1.38-0.29-7.04-0.74-12.59-0.98-5.54-0.24-10.27-0.27-10.5-0.06-0.22 0.21-2.66 0.66-5.41 0.99zm-1739.5-54.37h175v52h-175zm0 110h175v51h-175zm0 109h175v51h-175z"/>
		<path id="Path 2" class="s0" d="m404.43 241.5c0 13.75 0.14 19.6 0.32 13 0.17-6.6 0.17-17.85 0-25-0.17-7.15-0.32-1.75-0.32 12zm73.05 134.5c0 60.23 0.12 84.75 0.27 54.5 0.15-30.25 0.15-79.52 0-109.5-0.15-29.98-0.27-5.23-0.27 55zm436.65 42.86c0.21 0.48 9.82 15.54 21.37 33.48 11.55 17.94 21.23 32.63 21.5 32.64 0.27 0.01 1.83-2.12 3.46-4.73 1.62-2.61 10.96-17.24 20.75-32.5 9.78-15.26 17.79-28.2 17.79-28.75 0-0.65-14.87-1-42.62-1-23.53 0-42.45 0.39-42.25 0.86z"/>
		<path id="Path 3" class="s1" d="m404.98 215.25c-0.01 0.14-0.12 11.84-0.25 26l-0.23 25.75h73.5v218h54v-218h75v-52c-156.55 0-202.01 0.11-202.02 0.25zm225.02 134.75v135h54v-218c40.57 0 49.12 0.42 54.75 1.53 4.26 0.85 9.95 2.76 12.64 4.25 2.69 1.5 6.19 4.29 7.77 6.22 1.59 1.93 3.83 5.98 4.99 9 1.55 4.04 2.14 7.89 2.19 14.5 0.06 6.6-0.44 10.44-1.88 14.39-1.08 2.97-3.76 7.42-5.96 9.89-2.2 2.47-6.14 5.56-8.75 6.86-2.61 1.3-7.34 3.03-10.5 3.86-3.16 0.82-11.04 1.83-17.51 2.25l-11.75 0.75 0.03 52 63.98 92.5 114.5 0.06c51.92-142.75 67.39-184.28 67.86-184.38 0.47-0.1 1.47 1.39 2.22 3.32 0.74 1.93 6.12 16.55 11.95 32.5 5.83 15.95 13.07 35.75 16.09 44 3.03 8.25 8.39 22.87 11.92 32.5 3.54 9.62 10.89 29.65 16.34 44.5l9.92 27c47.17 0.41 57.2 0.15 57.2-0.5 0-0.55-4.77-13.49-10.6-28.75-5.83-15.26-19.74-51.82-30.93-81.25-11.18-29.43-29.3-77.13-40.26-106l-19.94-52.5-46.77-0.6c-3.63 8.99-19.67 51.2-37.98 99.6-18.32 48.4-39.54 104.53-47.16 124.73-7.62 20.2-14.09 36.72-14.36 36.71-0.27-0.01-2.09-2.36-4.04-5.23-1.95-2.86-12.73-18.26-23.94-34.21-11.22-15.95-24.16-34.4-28.75-41-4.59-6.6-8.21-12.04-8.06-12.09 0.16-0.05 3.21-1.42 6.79-3.06 3.58-1.64 9.2-4.8 12.5-7.03 3.3-2.23 8.92-7.18 12.5-11.01 3.58-3.82 8.07-9.62 9.99-12.88 1.92-3.26 4.69-9.53 6.15-13.93 1.47-4.4 3.23-11.82 3.91-16.5 0.79-5.39 1.03-13.25 0.65-21.5-0.38-8.47-1.34-15.79-2.73-21-1.19-4.4-3.37-10.7-4.86-14-1.5-3.3-4.34-8.47-6.33-11.5-1.99-3.03-6.37-8.2-9.73-11.5-3.36-3.3-8.46-7.51-11.33-9.36-2.87-1.84-7.92-4.59-11.22-6.11-3.3-1.51-9.83-3.69-14.5-4.85-4.67-1.16-12.33-2.57-17-3.15-4.89-0.59-30.92-1.03-61.25-1.03h-52.75zm425-109v26h74v218h54v-218h74v-52h-202zm271-22.65c-5.22 1.74-17.27 5.63-26.76 8.65l-17.27 5.5 0.03 252.5h54c0-209.25-0.11-269.96-0.25-269.9-0.14 0.05-4.53 1.51-9.75 3.25z"/>
	</g>
</svg>